<svg xmlns="http://www.w3.org/2000/svg" width="1024" height="1024" viewBox="0 0 108 108">
<defs>
  <linearGradient id="fruit" x1="37" y1="39" x2="72" y2="76" gradientUnits="userSpaceOnUse">
    <stop offset="0" stop-color="#FFC52F"/><stop offset=".45" stop-color="#FF941F"/><stop offset="1" stop-color="#FF5729"/>
  </linearGradient>
  <linearGradient id="leaf" x1="58" y1="41" x2="76" y2="24" gradientUnits="userSpaceOnUse">
    <stop offset="0" stop-color="#006338"/><stop offset=".55" stop-color="#168A3C"/><stop offset="1" stop-color="#78CC2D"/>
  </linearGradient>
  <linearGradient id="ring" x1="20" y1="70" x2="91" y2="48" gradientUnits="userSpaceOnUse">
    <stop offset="0" stop-color="#FF9B16"/><stop offset=".55" stop-color="#FF6B25"/><stop offset="1" stop-color="#FF9724"/>
  </linearGradient>
</defs>
<rect width="108" height="108" fill="#FFF8EA"/>
<path d="M56 38 C59 28 67 22 78 23 C76 33 69 40 58 42 C57 41 56 40 56 38 Z" fill="url(#leaf)"/>
<path d="M58 40 C65 34 70 29 76 24" fill="none" stroke="#5FBF31" stroke-width="1.1" stroke-linecap="round" opacity=".78"/>
<path d="M69 45 C83 40 92 43 91 51 C90 56 86 61 81 65" fill="none" stroke="url(#ring)" stroke-width="6.2" stroke-linecap="round"/>
<circle cx="53" cy="57" r="21.8" fill="url(#fruit)"/>
<path d="M39.5 49.5 C42.4 44.7 47.7 41.6 50.5 43.3 C53.1 45 50.5 50 46.6 53.1 C42.7 56.1 37.8 55.2 39.5 49.5 Z" fill="#FFE99A" opacity=".8"/>
<path d="M20 66 C34 79 62 80 84 61 C87 59 89 56 91 53" fill="none" stroke="url(#ring)" stroke-width="8.1" stroke-linecap="round"/>
<path d="M22 64 C37 75 63 75 83 58 C86 56 88 54 90 51" fill="none" stroke="#FFFDF7" stroke-width="4.6" stroke-linecap="round"/>
<path d="M22 72 C39 79 63 75 80 62" fill="none" stroke="#FF7A20" stroke-width="2.4" stroke-linecap="round" opacity=".9"/>
</svg>
